<?xml version="1.0" encoding="UTF-8"?>
<svg id="_圖層_1" xmlns="http://www.w3.org/2000/svg" xmlns:xlink="http://www.w3.org/1999/xlink" version="1.1" viewBox="0 0 360 56.3">
  <!-- Generator: Adobe Illustrator 29.4.0, SVG Export Plug-In . SVG Version: 2.1.0 Build 152)  -->
  <defs>
    <linearGradient id="_未命名漸層_7" data-name="未命名漸層 7" x1="0" y1="56.3" x2="1" y2="56.3" gradientTransform="translate(8 2251.6) scale(39.7 -39.7)" gradientUnits="userSpaceOnUse">
      <stop offset="0" stop-color="#fff"/>
      <stop offset=".1" stop-color="#e4d8ba"/>
      <stop offset=".4" stop-color="#ba9b4c"/>
      <stop offset=".5" stop-color="#a98320"/>
      <stop offset=".6" stop-color="#a47e21"/>
      <stop offset=".8" stop-color="#977225"/>
      <stop offset=".9" stop-color="#815e2b"/>
      <stop offset="1" stop-color="#745230"/>
    </linearGradient>
    <linearGradient id="_未命名漸層_8" data-name="未命名漸層 8" x1="0" y1="56.3" x2="1" y2="56.3" gradientTransform="translate(-2103.8 913.6) rotate(67) scale(41.2 -41.2)" gradientUnits="userSpaceOnUse">
      <stop offset="0" stop-color="#fff"/>
      <stop offset="0" stop-color="#f8f5ee"/>
      <stop offset=".2" stop-color="#dccda5"/>
      <stop offset=".3" stop-color="#c6ad6c"/>
      <stop offset=".4" stop-color="#b69642"/>
      <stop offset=".5" stop-color="#ac8829"/>
      <stop offset=".5" stop-color="#a98320"/>
      <stop offset=".7" stop-color="#8d6928"/>
      <stop offset="1" stop-color="#745230"/>
    </linearGradient>
    <linearGradient id="_未命名漸層_9" data-name="未命名漸層 9" x1="0" y1="56.3" x2="1" y2="56.3" gradientTransform="translate(46.1 -2195.4) rotate(-180) scale(39.7 -39.7)" gradientUnits="userSpaceOnUse">
      <stop offset="0" stop-color="#fff"/>
      <stop offset=".1" stop-color="#e4d8ba"/>
      <stop offset=".4" stop-color="#ba9b4c"/>
      <stop offset=".5" stop-color="#a98320"/>
      <stop offset=".6" stop-color="#a47e21"/>
      <stop offset=".8" stop-color="#977225"/>
      <stop offset=".9" stop-color="#815e2b"/>
      <stop offset="1" stop-color="#745230"/>
    </linearGradient>
    <linearGradient id="_未命名漸層_10" data-name="未命名漸層 10" x1="0" y1="56.3" x2="1" y2="56.3" gradientTransform="translate(2157.7 -857.2) rotate(-113) scale(41.2 -41.2)" gradientUnits="userSpaceOnUse">
      <stop offset="0" stop-color="#fff"/>
      <stop offset="0" stop-color="#f8f5ee"/>
      <stop offset=".2" stop-color="#dccda5"/>
      <stop offset=".3" stop-color="#c6ad6c"/>
      <stop offset=".4" stop-color="#b69642"/>
      <stop offset=".5" stop-color="#ac8829"/>
      <stop offset=".5" stop-color="#a98320"/>
      <stop offset=".7" stop-color="#8d6928"/>
      <stop offset="1" stop-color="#745230"/>
    </linearGradient>
  </defs>
  <line x1="206.2" y1="6.9" x2="206.2" y2="49.4" fill="none" stroke="#231815" stroke-miterlimit="10"/>
  <g>
    <path d="M227.3,15.8l1.9.6c-.7,2-1.4,3.8-2.2,5.4v19.4h-2v-15.8c-.9,1.5-1.9,2.7-2.7,3.6-.3-.8-.7-1.5-1-2,2.2-2.4,4.1-5.6,5.6-9.7.2-.5.4-.9.5-1.4h-.1ZM230.1,17.3h16.1v23.5h-2v-1.4h-12.2v1.7h-2v-23.7h0ZM232.1,37.5h12.2v-18.3h-12.2v18.3ZM243.3,24.8h-4.3v3.1h3.2v7.4h-7.9v-7.4h3v-3.1h-4.2v-1.6h4.2v-3.2h1.7v3.2h4.3v1.6h0ZM240.6,33.7v-4.3h-4.7v4.3h4.7Z"/>
    <path d="M260.9,16.6h2.2v1.3c.3,4.8,1.5,9.1,3.4,12.9,2.1,3.9,5,6.8,8.8,8.5-.7.5-1.1,1-1.5,1.7-5.2-2.5-8.8-7.1-11-13.9-.2-.7-.4-1.4-.6-2.1-1.7,7.6-5.4,12.9-11.2,16.1-.5-.7-1-1.2-1.7-1.6,7.1-3.6,10.9-10.7,11.4-21.3v-1.4h0l.2-.2Z"/>
    <path d="M285,16.1l2,.7c-.8,2-1.9,3.9-3.1,5.8v18.4h-2v-15.6c-1.3,1.6-2.5,2.9-3.6,3.9-.4-.7-.7-1.4-1.2-2,2.6-2.1,4.8-5,6.8-8.6.5-.9.9-1.8,1.3-2.7h-.2ZM293.9,38.5h5.1c.7,0,1.1-.3,1.3-.8.2-.6.4-1.7.5-3.4.6.4,1.2.7,2,.9-.2,2.3-.6,3.9-1.2,4.6-.5.6-1.3.8-2.3.8h-5.4c-1.6,0-2.6-.4-3.1-1-.4-.6-.6-1.5-.6-2.7v-20.8h2v10.5c3.3-2.2,5.8-4.3,7.4-6.1l2,1c-2.5,2.5-5.7,5-9.4,7.4v7.8c0,.8.2,1.4.5,1.6.3,0,.7.2,1.2.2h0Z"/>
    <path d="M315.1,16.7v21.9c0,1-.3,1.7-.8,2h0c-.6.3-1.8.4-3.6.4,0-.7-.3-1.3-.7-2h2.8c.4,0,.6-.2.6-.6v-6.8h-4.4c-.3,4-1,7.2-2,9.4-.5-.4-1-.7-1.7-1,1.3-2.7,2-6.8,2-12.5v-10.9h8-.2ZM309,29.8h4.3v-4.7h-4.2v4.7h0ZM313.2,18.6h-4.2v4.6h4.2v-4.6ZM328.9,26.1l1.2.4c-.7,3.7-2,6.8-3.8,9.4,1.4,1.6,3,2.8,4.7,3.6-.5.4-.9.9-1.3,1.6-1.7-.9-3.2-2.2-4.5-3.7-1.2,1.5-2.6,2.6-4.2,3.5-.4-.7-.8-1.1-1.2-1.6,1.6-.9,3-2,4.3-3.5-1.5-2.1-2.7-4.7-3.7-7.7h-.7v13h-2v-24.3h11.7v5.3c0,.9-.3,1.5-.7,1.8h-.3c-.7.2-2,.3-4.4.3,0-.6-.3-1.1-.7-1.8h3.5c.4,0,.6-.2.6-.5v-3.4h-7.8v7.4h9.4v.2ZM327.9,28.1h-5.8c.8,2.4,1.8,4.5,3,6.2,1.2-1.9,2.1-3.9,2.8-6.2Z"/>
    <path d="M342.6,32.4l-1.4-.7c.6-1.2,1-2.7,1.5-4.5h-2.7v11.5c0,.9-.3,1.6-.7,1.9h-.2c-.7.2-1.8.4-3.4.4,0-.7-.4-1.3-.7-1.9h2.6c.3,0,.4-.2.5-.4v-8.9c-1.3,3.1-2.6,5.4-4,6.8-.2-.5-.6-1.1-1.1-2,1.5-1.4,2.8-3.4,4-6.1.2-.5.4-.8.5-1.2h-4.2v-1.9h7.4c-1.5-1.2-3.4-2.4-5.7-3.4-.2,0-.4-.2-.6-.3l1.3-1.3c.7.3,1.7.7,2.7,1.3,1-.8,2-1.8,2.9-2.7h-7.9v-1.9h9.7l1.3.7c-1.1,1.7-2.6,3.3-4.6,4.7.8.6,1.7,1.1,2.3,1.7l-1,1.2h2.3l1.2.4s-.2.6-.4,1.5c2-.6,3.6-1.3,4.9-2.1-1.1-1-2-2.1-2.9-3.4-.9.9-1.6,1.6-2,2-.6-.5-1.1-.9-1.7-1.2,2-1.5,3.5-3.4,4.7-5.8.2-.4.4-.7.5-1l2,.6c-.3.6-.7,1.4-1.3,2.4h9.2v1.8h-2.1c-.7,1.9-1.9,3.4-3.4,4.7,1.9,1.1,3.8,2,6.1,2.4-.6.7-1,1.2-1.3,1.8-2.3-.7-4.5-1.7-6.3-3-1.7,1.1-3.7,2.1-6.1,2.9-.2-.3-.4-.7-.7-1.1-.6,1.9-1.1,3.3-1.7,4.3h.5v-.2ZM351.1,31.2h6.5v.9c-.4,4.3-.9,6.9-1.6,7.8,0,0-.2.2-.2.3-.4.4-.9.7-1.8.7h-3.1c0-.8-.3-1.4-.6-2h2.7c.5,0,.8,0,.9-.3.6-.6,1-2.5,1.4-5.9h-4.7c-.8,3.2-2.5,5.5-4.9,7-.7.5-1.5.8-2.4,1.2-.4-.7-.7-1.2-1.2-1.6,3-1.1,5-3,6.1-5.6,0-.3.3-.7.3-.9h-4.3v-1.8h4.7c.2-.8.3-1.8.4-2.7h2c0,.8-.2,1.8-.4,2.7h0l.2.2ZM353.8,20.3h-5.9c.7,1.3,1.9,2.5,3.2,3.5,1.1-1,2-2.2,2.7-3.5h0Z"/>
  </g>
  <g>
    <g>
      <path d="M2.5,28.1C2.5,14.6,13.5,3.6,27.1,3.6s24.5,11,24.5,24.5-11,24.5-24.5,24.5S2.5,41.7,2.5,28.1Z" fill="#fff"/>
      <path d="M8.6,16.7c4.6-3.3,11.2-5.3,18.5-5.3s13.9,2,18.5,5.3c4.2,3,6.8,7.1,6.8,11.5,0-9.4-5.2-17.7-12.8-22-3.5-2-7.5-3.2-11.8-3.3h0c-.2,0-.4,0-.6,0s-.4,0-.6,0h0c-4.3.1-8.3,1.3-11.8,3.3-3.7,2.3-6.1,5.7-6.1,9.4s0,.8,0,1.1Z" fill="url(#_未命名漸層_7)"/>
      <path d="M45.5,39.7c0,.4,0,.8,0,1.1,0,3.7-2.3,7.1-6.1,9.4,7.7-4.3,12.8-12.6,12.8-22s-2.6-8.5-6.8-11.5c-4.6-3.3-11.2-5.3-18.5-5.3v16.9c9.7,0,17.6,5.1,18.5,11.5Z" fill="url(#_未命名漸層_8)"/>
      <path d="M45.5,39.7c-4.6,3.3-11.2,5.3-18.5,5.3s-13.9-2.1-18.5-5.3c-4.2-3-6.8-7.1-6.8-11.5,0,9.4,5.2,17.7,12.8,22,3.5,2,7.5,3.2,11.8,3.3h0c.2,0,.4,0,.6,0s.4,0,.6,0h0c4.3-.1,8.3-1.3,11.8-3.3,3.7-2.3,6.1-5.6,6.1-9.4s0-.8,0-1.1Z" fill="url(#_未命名漸層_9)"/>
      <path d="M8.6,16.7c0-.4,0-.8,0-1.1,0-3.7,2.3-7.1,6.1-9.4C6.9,10.5,1.8,18.7,1.8,28.2s2.6,8.5,6.8,11.5c4.6,3.3,11.2,5.3,18.5,5.3v-16.9c-9.7,0-17.6-5.1-18.5-11.5Z" fill="url(#_未命名漸層_10)"/>
    </g>
    <g>
      <path d="M75.8,16.1h2.3v12.3c0,3.4-.7,6.1-1.8,8.1-.7,1.1-1.6,2-2.6,2.7-1.1.7-2.7,1.3-4.6,1.7l-1.4-2.2c1.5-.1,2.9-.5,4.2-1.2,2.4-1.3,3.7-4,3.9-8.1-1.9,1.5-4.1,2.9-6.7,4.4l-1.2-2.2c3.4-1.8,6.1-3.5,8-5v-10.5ZM70.2,18.1c1.4,1.6,2.9,3.6,4.3,6.2l-2,1.3c-1.6-2.7-3-4.7-4.3-6.1l1.9-1.4ZM83.7,16v20.9c0,.4.1.7.4,1,.3.2.6.4.9.4h3.9c.2,0,.5,0,.7-.3.2,0,.3-1.2.4-3.4l2.3.4c-.2,2.9-.4,4.4-.7,4.7-.6.6-1.1.9-1.6.9h-6.2c-.6,0-1.1-.3-1.7-.8-.4-.5-.7-1-.7-1.6V16h2.3ZM91.7,18.7c-1.3,2-3.1,4.1-5.4,6.3l-1.8-1.6c2.4-2.4,4.2-4.5,5.3-6.2l1.8,1.5ZM86,26.4c1.9,1.2,4,2.8,6.3,5l-1.5,1.8c-2.4-2.3-4.5-3.9-6.2-4.9l1.4-1.9Z" fill="#231815"/>
      <path d="M106.6,36.9h-3.7c-.2,0-.3-.1-.3-.3v-4.3c0-.2,0-.3.3-.3h19.7c.2,0,.3,0,.3.3v4.3c0,.2-.1.3-.3.3h-3.5l-.7,1.8h6.7v2.1h-24.8v-2.1h7l-.8-1.8ZM124.9,29.3v1.9h-24.2v-1.9h24.2ZM114.9,25v-1.7h2.4v-1.3h-2.4v-1.7h2.4v-1.4h-2.5v-1.7h2.5v-1.4h1.9v1.4h2.3v1.7h-2.3v1.4h2.2v1.7h-2.2v1.3h2.3v1.7h-2.3v1.3h2.9c.2,0,.3-.1.3-.3v-9.8h2.1v11.1c0,.6-.3.9-.9.9h-21.6c-.6,0-.9-.3-.9-.9v-11.1h2.1v9.8c0,.2.1.3.3.3h2.9v-1.3h-2.4v-1.7h2.4v-1.4h-2.3v-1.7h2.3v-1.3h-2.4v-1.7h2.4v-1.4h1.9v1.4h2.1v1.7h-2.1v1.3h2.1v1.7h-2.1v1.4h2.2v1.7h-2.2v1.3h3.3v-10.5h2.1v10.5h3.5v-1.3h-2.4ZM104.9,33.8c0,0,0,0,0,0v1.1h0c0,.1,15.9.1,15.9.1h.1v-1.2h-.1c0,0-15.9,0-15.9,0ZM116.2,38.6l.7-1.4v-.3c.1,0-7.9,0-7.9,0l.7,1.8h6.6Z" fill="#231815"/>
      <path d="M132.6,20.5h8.1v2.1h-8.1v-2.1ZM135.1,39.6v.7h-2.2v-8.1c0-.5.2-.7.7-.7h6.1c.5,0,.7.3.7.7v6.6c0,.5-.2.7-.7.7h-4.6ZM133.3,16.8h6.6v2.1h-6.6v-2.1ZM133.3,24.4h6.7v2.1h-6.7v-2.1ZM133.3,28.1h6.7v2.1h-6.7v-2.1ZM137.8,33.7h-2.4c-.2,0-.3.1-.3.3v3.5h2.7c.3,0,.5-.2.5-.5v-3.1c0-.2-.1-.3-.4-.3ZM144.9,24.7c0,0-.1,0-.1.1-.8.6-1.7,1.1-2.6,1.6l-1.3-1.8c.5-.3,1.5-.8,2.9-1.6-.6-.5-1.4-1.2-2.4-2l1.4-1.5c1.4,1.1,2.2,1.9,2.6,2.2,1.1-1,1.9-2,2.6-3h-4.7v-2h6.3c.3,0,.6.1.7.3.3.5.6,1,1,1.5.8-.9,1.5-1.8,1.9-2.5l1.6,1.3c-.6.9-1.3,1.8-2.3,2.8.2.3.5.6.8.9,1-1.1,1.8-2.1,2.3-2.9l1.6,1.2c-.6,1-1.4,2-2.5,3.1.9.7,1.9,1.4,3.1,2.1l-1.6,1.6c-.6-.4-1.2-.8-1.8-1.2v1.4h-9.7v-1.6ZM153.2,38.6h4.3v2.1h-15.4v-2.1h4.1c-.3-1.5-.6-2.7-.9-3.9h-1.8c-.4,0-.6-.2-.6-.6v-6c0-.4.2-.6.6-.6h12.3c.4,0,.6.2.6.6v6c0,.4-.2.6-.6.6h-1.6c-.1.5-.3,1.2-.5,1.9-.2.7-.4,1.3-.5,1.9ZM154.2,29.8h-9.1c0,0,0,0,0,0v2.7c0,0,0,.1,0,.1h9.1c0,0,.1,0,.1-.1v-2.7c0,0,0,0-.1,0ZM145.6,24.2h8.2c-1.3-1.1-2.7-2.7-3.9-4.5-1.1,1.5-2.5,3-4.2,4.5ZM151.7,35.9c.1-.4.2-.8.3-1.1h-4.5c.4,1.4.7,2.7.9,3.9h2.6c.3-.8.6-1.7.8-2.7Z" fill="#231815"/>
      <path d="M175.9,33.1h-4.7v-1.5c-1.1,1.1-2.4,2.1-3.9,3l-1.8-1.7c2.2-1.4,4.2-2.9,6-4.6h-5.5v-2.2h7.4c.7-1,1.3-1.9,1.7-2.8h0c0,0-8.1,0-8.1,0v-2.2h9c.4-1.5.7-3.3.9-5.2l2.4.2c-.2,1.3-.5,3-1,4.9h3.4c1.3-2,2.2-3.6,2.8-5l2.1,1.1c-.5,1.2-1.2,2.5-2.1,3.9h5v2.2h-7.9c.6,1.1,1.1,2,1.7,2.9h7.2v2.2h-5.4c1.5,1.5,3.4,3,5.9,4.5l-1.9,1.8c-1-.7-1.9-1.3-2.7-2,0,1.6,0,3-.1,4.3,0,1.3-.3,2.3-.8,2.9-.4.6-1,.9-1.8,1.2-1.3.4-3.2.3-5.6-.4v-2.7c1,.4,1.9.7,2.6.8,1.2.2,2.1,0,2.8-.6.3-.3.5-.9.5-1.6.1-1.8.1-2.8,0-3.1,0-.1-.2-.2-.3-.2h-5.2c-.3.8-.6,1.6-1.1,2.3-.2.3-.4.5-.6.8-2,2.5-5.2,4-9.8,4.6l-.6-2.4c1.1-.1,2.1-.3,2.9-.5,3.3-.7,5.6-2.4,6.6-4.9ZM169.4,17.1l1.9-1.4c.8.9,1.7,2.1,2.5,3.5l-2,1.3c-.9-1.5-1.7-2.7-2.4-3.4ZM172,30.9h12.6c-.4-.4-1.2-1.3-2.4-2.7h-7.8c-.6.7-1.4,1.6-2.4,2.7ZM180.8,26c-.5-.9-1-1.9-1.5-2.9h-1.6c-.2.5-.7,1.5-1.5,2.9h4.7Z" fill="#231815"/>
    </g>
  </g>
</svg>