<?xml version="1.0" encoding="UTF-8"?>
<svg id="_圖層_1" data-name="圖層_1" xmlns="http://www.w3.org/2000/svg" xmlns:xlink="http://www.w3.org/1999/xlink" version="1.1" viewBox="0 0 24.1 24.1">
  <!-- Generator: Adobe Illustrator 29.1.0, SVG Export Plug-In . SVG Version: 2.1.0 Build 142)  -->
  <defs>
    <style>
      .st0 {
        fill: none;
        stroke: #495057;
        stroke-linecap: round;
        stroke-linejoin: round;
        stroke-width: 1.5px;
      }

      .st1 {
        fill: url(#_未命名漸層_2);
      }
    </style>
    <linearGradient id="_未命名漸層_2" data-name="未命名漸層 2" x1="6.7" y1="9.1" x2="17.4" y2="9.1" gradientUnits="userSpaceOnUse">
      <stop offset="0" stop-color="#fdf3e4"/>
      <stop offset="1" stop-color="#d1a466"/>
    </linearGradient>
  </defs>
  <path class="st1" d="M8.3,11.8c-.7,0-1.2-.2-1.7-.3v-3.3c.5,0,1.1.2,1.7.2,1.5,0,3-.4,4.4-1.1,1-.5,2.1-.8,3.3-.8s1,0,1.4.1v3.4c-.4,0-.9,0-1.4,0-1.9,0-3.8.4-5.4,1.3-.7.4-1.5.6-2.2.6h0Z"/>
  <g>
    <line class="st0" x1="4.4" y1="10.7" x2="4.4" y2="19.9"/>
    <path class="st0" d="M4.4,12.9s3.2,2.5,7.2.4,8-.4,8-.4V4.8s-4-1.8-8,.4-7.2-.4-7.2-.4v8Z"/>
  </g>
</svg>