<?xml version="1.0" encoding="UTF-8"?>
<svg id="_圖層_1" data-name="圖層_1" xmlns="http://www.w3.org/2000/svg" xmlns:xlink="http://www.w3.org/1999/xlink" version="1.1" viewBox="0 0 24.1 24.1">
  <!-- Generator: Adobe Illustrator 29.1.0, SVG Export Plug-In . SVG Version: 2.1.0 Build 142)  -->
  <defs>
    <style>
      .st0 {
        stroke: #495057;
      }

      .st0, .st1 {
        fill: none;
        stroke-linecap: round;
        stroke-linejoin: round;
        stroke-width: 1.5px;
      }

      .st2 {
        fill: url(#_未命名漸層_11);
      }

      .st1 {
        stroke: #fff;
      }
    </style>
    <linearGradient id="_未命名漸層_11" data-name="未命名漸層 11" x1="3.7" y1="14.8" x2="20.4" y2="14.8" gradientUnits="userSpaceOnUse">
      <stop offset="0" stop-color="#fdf3e4"/>
      <stop offset="1" stop-color="#d1a466"/>
    </linearGradient>
  </defs>
  <path class="st2" d="M14.9,12.8c-3,.9-4.6-2.1-6.9-2-1,0-2.7.4-4.3.9v5.1c0,1.6,1.3,2.8,2.8,2.8h11.1c1.6,0,2.8-1.3,2.8-2.8v-6.9c-1.8,1.2-4.1,2.4-5.5,2.9Z"/>
  <path class="st1" d="M20.4,11.5c-1.8,1.2-4.1,2.4-5.5,2.9-3,.9-4.6-2.1-6.9-2-1,0-2.7.4-4.3.9"/>
  <g>
    <path class="st0" d="M14.9,12.8c1.5-.5,3.7-1.7,5.5-2.9v-2.7c0-1.6-1.3-2.8-2.8-2.8H6.5c-1.6,0-2.8,1.3-2.8,2.8v4.4c1.6-.4,3.3-.8,4.3-.9,2.3,0,3.9,2.9,6.9,2Z"/>
    <path class="st0" d="M14.9,12.8c-3,.9-4.6-2.1-6.9-2-1,0-2.7.4-4.3.9v5.1c0,1.6,1.3,2.8,2.8,2.8h11.1c1.6,0,2.8-1.3,2.8-2.8v-6.9c-1.8,1.2-4.1,2.4-5.5,2.9Z"/>
  </g>
</svg>