<?xml version="1.0" encoding="UTF-8"?>
<svg id="_圖層_1" data-name="圖層_1" xmlns="http://www.w3.org/2000/svg" xmlns:xlink="http://www.w3.org/1999/xlink" version="1.1" viewBox="0 0 24.1 24.1">
  <!-- Generator: Adobe Illustrator 29.1.0, SVG Export Plug-In . SVG Version: 2.1.0 Build 142)  -->
  <defs>
    <style>
      .st0 {
        fill: none;
        stroke: #495057;
        stroke-linecap: round;
        stroke-linejoin: round;
        stroke-width: 1.5px;
      }

      .st1 {
        fill: url(#_未命名漸層_11);
      }

      .st2 {
        fill: #fff;
      }
    </style>
    <linearGradient id="_未命名漸層_11" data-name="未命名漸層 11" x1="14.7" y1="7.7" x2="9.4" y2="7.7" gradientUnits="userSpaceOnUse">
      <stop offset="0" stop-color="#fdf3e4"/>
      <stop offset="1" stop-color="#d1a466"/>
    </linearGradient>
  </defs>
  <path class="st0" d="M18.8,20.8H5.3v-3.5c0-1.3,1-2.3,2.3-2.3h5.3"/>
  <g>
    <circle class="st1" cx="12" cy="7.7" r="2.6"/>
    <circle class="st0" cx="12" cy="7.7" r="4.4"/>
  </g>
  <g>
    <path class="st2" d="M23.1,15c0-1.2-1-2.2-2.2-2.2,0-1.2-1-2.2-2.2-2.2s-2.2,1-2.2,2.2c-1.2,0-2.2,1-2.2,2.2s1,2.2,2.2,2.2c0,1.2,1,2.2,2.2,2.2s2.2-1,2.2-2.2c1.2,0,2.2-1,2.2-2.2Z"/>
    <g>
      <line class="st0" x1="16.6" y1="15" x2="21" y2="15"/>
      <line class="st0" x1="18.8" y1="12.8" x2="18.8" y2="17.2"/>
    </g>
  </g>
</svg>