<?xml version="1.0" encoding="UTF-8"?>
<svg id="_圖層_1" xmlns="http://www.w3.org/2000/svg" xmlns:xlink="http://www.w3.org/1999/xlink" version="1.1" viewBox="0 0 24.1 24.1">
  <!-- Generator: Adobe Illustrator 29.1.0, SVG Export Plug-In . SVG Version: 2.1.0 Build 142)  -->
  <defs>
    <style>
      .st0 {
        fill: none;
      }

      .st1 {
        fill: #495057;
      }

      .st2 {
        fill: url(#_未命名漸層_3);
      }
    </style>
    <linearGradient id="_未命名漸層_3" data-name="未命名漸層 3" x1="8.9" y1="12.2" x2="18.8" y2="12.2" gradientUnits="userSpaceOnUse">
      <stop offset="0" stop-color="#fdf3e4"/>
      <stop offset="1" stop-color="#d1a466"/>
    </linearGradient>
  </defs>
  <path class="st0" d="M11.3,11.7v-7.6c-4,.4-7.2,3.8-7.2,7.9s.6,3.6,1.8,5l5.4-5.3Z"/>
  <path class="st0" d="M12.8,4.1v7.9c0,.2,0,.4-.2.5l-5.7,5.5c1.4,1.2,3.2,1.9,5.1,1.9,4.4,0,7.9-3.6,7.9-8s-3.2-7.5-7.2-7.9ZM12.1,18.8c-1.1,0-2.2-.3-3.2-.8l5.1-5c0,0,0-.1,0-.2v-7.1c2.8.9,4.7,3.5,4.7,6.4s-3,6.7-6.7,6.7Z"/>
  <path class="st1" d="M12.1,2.6s0,0,0,0c0,0,0,0,0,0C6.8,2.6,2.6,6.8,2.6,12s1,4.8,2.7,6.6c0,0,0,0,0,0,1.8,1.8,4.2,2.8,6.7,2.8,5.2,0,9.4-4.2,9.4-9.5S17.3,2.6,12.1,2.6ZM11.3,4.1v7.6l-5.4,5.3c-1.1-1.4-1.8-3.2-1.8-5,0-4.1,3.2-7.5,7.2-7.9ZM12.1,20c-1.9,0-3.7-.7-5.1-1.9l5.7-5.5c.1-.1.2-.3.2-.5v-7.9c4,.4,7.2,3.8,7.2,7.9s-3.6,8-7.9,8Z"/>
  <path class="st2" d="M14,5.6v7.1c0,0,0,.1,0,.2l-5.1,5c1,.5,2.1.8,3.2.8,3.7,0,6.7-3,6.7-6.7s-1.9-5.6-4.7-6.4Z"/>
</svg>