<?xml version="1.0" encoding="UTF-8"?>
<svg id="_圖層_1" xmlns="http://www.w3.org/2000/svg" xmlns:xlink="http://www.w3.org/1999/xlink" version="1.1" viewBox="0 0 24.1 24.1">
  <!-- Generator: Adobe Illustrator 29.1.0, SVG Export Plug-In . SVG Version: 2.1.0 Build 142)  -->
  <defs>
    <style>
      .st0 {
        fill: none;
        stroke: #495057;
        stroke-linecap: round;
        stroke-linejoin: round;
        stroke-width: 1.5px;
      }

      .st1 {
        fill: url(#_未命名漸層_3);
      }
    </style>
    <linearGradient id="_未命名漸層_3" data-name="未命名漸層 3" x1="8.4" y1="12.2" x2="19.1" y2="12.2" gradientUnits="userSpaceOnUse">
      <stop offset="0" stop-color="#fdf3e4"/>
      <stop offset="1" stop-color="#d1a466"/>
    </linearGradient>
  </defs>
  <path class="st1" d="M12.1,19c-1.3,0-2.6-.4-3.7-1l5.4-5.2v-7.5c3,.8,5.3,3.5,5.3,6.8s-3.1,7-7,7Z"/>
  <path class="st0" d="M12,3.3C7.2,3.3,3.3,7.2,3.3,12s.9,4.5,2.5,6.1l6.2-6.1V3.3Z"/>
  <path class="st0" d="M12.1,3.3v8.7l-6.2,6.1c1.6,1.6,3.8,2.6,6.2,2.6,4.8,0,8.7-3.9,8.7-8.7S16.9,3.3,12.1,3.3Z"/>
</svg>