<?xml version="1.0" encoding="utf-8"?>
<!-- Generator: Adobe Illustrator 28.1.0, SVG Export Plug-In . SVG Version: 6.00 Build 0)  -->
<svg version="1.1" id="圖層_1" xmlns="http://www.w3.org/2000/svg" xmlns:xlink="http://www.w3.org/1999/xlink" x="0px" y="0px"
	 viewBox="0 0 24.1 24.1" style="enable-background:new 0 0 24.1 24.1;" xml:space="preserve">
<style type="text/css">
	.st0{fill:none;stroke:#495057;stroke-width:1.5;stroke-linecap:round;stroke-linejoin:round;stroke-miterlimit:10;}
	.st1{fill:url(#SVGID_1_);}
	.st2{fill:#FFFFFF;stroke:#495057;stroke-width:1.5;stroke-linecap:round;stroke-linejoin:round;stroke-miterlimit:10;}
</style>
<g>
	<polyline class="st0" points="7.8,20.6 4.3,20.6 4.3,3.2 17.7,3.2 17.7,8.9 	"/>
	<linearGradient id="SVGID_1_" gradientUnits="userSpaceOnUse" x1="7.293" y1="11.9186" x2="14.735" y2="11.9186">
		<stop  offset="0" style="stop-color:#FDF3E4"/>
		<stop  offset="1" style="stop-color:#cb954b"/>
	</linearGradient>
	<rect x="7.3" y="6.8" class="st1" width="7.4" height="10.1"/>
	<line class="st0" x1="7.8" y1="7.3" x2="14.3" y2="7.3"/>
	<line class="st0" x1="7.8" y1="10.6" x2="12" y2="10.6"/>
	<g>
		<path class="st2" d="M14.6,19.4l-3.2,1.4c-0.6,0.3-1.3-0.4-1-1l1.4-3.2l4.5-4.5c0.8-0.8,2.1-0.8,2.9,0l0,0c0.8,0.8,0.8,2,0,2.7
			L14.6,19.4z"/>
		<line class="st0" x1="16.3" y1="13.2" x2="18.4" y2="15.3"/>
	</g>
</g>
</svg>
